<?xml version="1.0" standalone="no"?>
<!DOCTYPE svg PUBLIC "-//W3C//DTD SVG 20010904//EN"
 "http://www.w3.org/TR/2001/REC-SVG-20010904/DTD/svg10.dtd">
<svg version="1.0" xmlns="http://www.w3.org/2000/svg"
 width="1024.000000pt" height="1024.000000pt" viewBox="0 0 1024.000000 1024.000000"
 preserveAspectRatio="xMidYMid meet">
<metadata>
Created by potrace 1.11, written by Peter Selinger 2001-2013
</metadata>
<g transform="translate(0.000000,1024.000000) scale(0.100000,-0.100000)"
fill="#000000" stroke="none">
<path d="M4838 10076 c-1 -2 -48 -6 -103 -10 -211 -14 -461 -47 -675 -91 -14
-3 -37 -7 -51 -10 -151 -28 -585 -159 -714 -215 -11 -5 -65 -28 -120 -51 -197
-82 -448 -212 -638 -331 -83 -51 -251 -163 -271 -179 -6 -5 -38 -29 -71 -54
-33 -24 -64 -48 -70 -52 -5 -5 -30 -24 -55 -43 -25 -19 -47 -37 -50 -40 -3 -3
-30 -25 -60 -50 -186 -152 -439 -401 -620 -610 -36 -41 -67 -77 -70 -80 -3 -3
-23 -27 -45 -55 -21 -27 -42 -52 -45 -55 -15 -14 -156 -210 -226 -315 -278
-414 -490 -878 -614 -1340 -34 -127 -60 -229 -66 -265 -3 -14 -11 -56 -19 -95
-8 -38 -16 -86 -19 -105 -3 -19 -8 -44 -10 -56 -2 -12 -7 -45 -11 -74 -4 -29
-8 -60 -10 -69 -1 -9 -6 -47 -10 -86 -4 -38 -9 -77 -10 -86 -19 -103 -27 -720
-12 -924 13 -181 23 -280 32 -318 3 -12 7 -40 9 -62 6 -56 26 -177 30 -184 2
-3 7 -26 10 -51 8 -59 9 -62 49 -230 62 -256 163 -554 265 -785 29 -66 176
-359 209 -416 70 -122 198 -319 281 -433 12 -17 30 -43 40 -57 9 -14 33 -45
52 -69 19 -23 57 -70 85 -104 222 -274 584 -636 800 -799 5 -4 21 -17 35 -28
14 -12 50 -40 80 -62 30 -23 61 -47 68 -54 7 -7 17 -13 21 -13 4 0 16 -8 27
-18 33 -30 193 -136 329 -217 418 -252 855 -429 1335 -541 114 -27 331 -69
395 -78 176 -22 307 -36 396 -43 202 -15 773 -8 929 12 14 1 54 6 90 10 233
24 550 87 805 160 132 38 373 119 430 145 11 5 82 36 157 69 362 158 684 354
1033 626 49 38 99 79 111 90 12 11 48 43 80 70 132 113 320 297 456 447 90 98
253 292 277 328 8 14 26 36 38 50 13 14 23 28 23 32 0 3 6 13 13 20 24 24 163
232 241 361 92 153 217 393 276 532 23 55 46 109 51 120 43 97 131 360 174
520 38 141 61 237 80 340 3 17 7 39 10 50 9 43 44 284 51 350 3 39 8 78 10 87
26 143 26 793 -1 1048 -2 25 -7 70 -10 100 -3 30 -8 70 -11 88 -2 17 -6 49 -9
70 -6 47 -16 111 -21 137 -3 11 -7 36 -10 55 -3 19 -9 51 -14 70 -5 19 -11 47
-14 63 -3 15 -7 35 -10 45 -3 9 -7 28 -10 42 -14 79 -63 252 -115 410 -199
597 -530 1168 -956 1649 -126 143 -332 351 -436 442 -33 30 -73 65 -88 79 -38
36 -130 112 -155 129 -12 8 -23 18 -26 21 -13 17 -237 180 -350 255 -318 210
-708 404 -1025 510 -44 15 -89 30 -100 35 -19 8 -87 28 -230 68 -123 35 -400
93 -505 107 -25 3 -52 8 -60 10 -20 5 -96 14 -255 30 -33 3 -80 8 -105 11 -48
6 -696 15 -702 10z m602 -1100 c19 -3 69 -8 110 -11 41 -3 104 -10 140 -16 36
-6 83 -13 105 -15 58 -8 311 -63 375 -82 30 -9 57 -17 60 -17 86 -21 374 -129
493 -184 49 -22 105 -48 125 -58 20 -9 39 -20 42 -23 3 -3 34 -21 70 -40 73
-38 299 -180 345 -216 40 -32 38 -31 125 -93 41 -30 77 -57 80 -60 3 -4 46
-41 95 -83 95 -80 398 -381 461 -458 65 -81 109 -133 119 -144 6 -6 39 -49 73
-96 35 -47 69 -93 77 -103 8 -9 15 -19 15 -21 0 -3 22 -38 49 -78 89 -135 196
-328 261 -473 44 -96 79 -185 73 -185 -3 0 -1 -6 5 -12 22 -28 128 -369 148
-477 3 -12 11 -51 19 -85 7 -33 16 -79 20 -101 3 -22 7 -47 10 -55 2 -8 6 -37
10 -65 3 -27 8 -63 11 -80 32 -193 38 -774 10 -955 -2 -14 -7 -56 -10 -94 -4
-38 -8 -71 -10 -75 -2 -3 -7 -31 -11 -61 -16 -129 -61 -325 -123 -531 -46
-156 -167 -446 -242 -584 -21 -38 -46 -86 -57 -105 -10 -19 -48 -81 -83 -138
-36 -57 -69 -111 -75 -120 -5 -10 -43 -62 -84 -117 -221 -297 -493 -577 -809
-833 -23 -17 -45 -32 -50 -32 -6 0 -12 -3 -14 -7 -10 -25 -246 -180 -423 -280
-95 -53 -230 -122 -242 -124 -5 -1 -33 -12 -63 -26 -30 -13 -91 -38 -135 -54
-44 -17 -87 -34 -96 -39 -18 -9 -278 -88 -318 -96 -12 -3 -53 -12 -90 -20
-100 -24 -100 -24 -196 -40 -49 -8 -101 -17 -114 -19 -40 -7 -103 -15 -151
-19 -25 -3 -85 -8 -135 -12 -173 -15 -593 -9 -765 11 -19 3 -55 7 -80 10 -25
2 -54 7 -65 9 -11 2 -40 7 -65 10 -112 15 -313 61 -473 107 -127 37 -159 47
-212 70 -11 5 -49 20 -85 33 -159 60 -355 156 -520 254 -83 50 -272 173 -280
181 -3 4 -32 26 -65 50 -33 25 -85 65 -115 90 -30 25 -68 57 -84 71 -65 54
-156 139 -257 241 -92 93 -136 141 -278 305 -14 16 -36 43 -48 60 -121 163
-152 207 -198 282 -30 48 -58 92 -63 97 -10 12 -86 148 -87 155 0 3 -8 16 -17
30 -9 14 -33 61 -53 105 -21 44 -47 103 -60 130 -131 282 -238 687 -289 1090
-34 277 -25 795 20 1070 1 11 6 40 9 65 4 25 16 88 27 140 11 52 22 106 25
120 3 14 16 66 30 115 14 50 26 95 27 100 15 65 118 346 136 370 4 6 11 25 15
43 3 17 11 32 16 32 5 0 9 6 9 14 0 12 84 185 110 226 5 8 24 41 42 73 18 32
40 69 48 82 8 12 30 48 48 78 51 86 195 279 306 412 244 289 598 606 885 789
96 62 219 136 224 136 3 0 37 18 76 41 80 46 255 125 376 170 44 17 87 34 97
39 15 8 171 56 211 65 9 2 21 6 26 9 8 5 245 62 296 71 192 34 315 50 485 61
58 3 106 8 108 9 6 5 475 -3 512 -9z"/>
<path d="M4938 8235 c-2 -1 -43 -5 -93 -9 -49 -3 -101 -8 -115 -11 -14 -2 -47
-6 -75 -9 -27 -3 -61 -8 -75 -11 -22 -4 -64 -12 -165 -30 -16 -3 -55 -12 -85
-20 -30 -9 -80 -23 -110 -31 -98 -27 -300 -104 -407 -154 -57 -28 -105 -50
-107 -50 -16 0 -284 -163 -351 -213 -5 -4 -32 -24 -60 -44 -127 -93 -246 -195
-359 -307 -104 -104 -219 -227 -244 -261 -31 -43 -118 -151 -124 -153 -5 -2
-8 -8 -8 -13 0 -5 -22 -40 -49 -77 -27 -37 -58 -83 -69 -102 -11 -19 -39 -69
-62 -110 -57 -99 -152 -301 -175 -370 -10 -30 -22 -61 -28 -67 -5 -7 -7 -13
-4 -13 4 0 -2 -20 -13 -45 -11 -25 -17 -45 -15 -45 3 0 -2 -17 -10 -37 -23
-60 -89 -348 -101 -443 -5 -44 -11 -100 -21 -215 -14 -167 -7 -580 12 -670 3
-11 7 -42 10 -70 2 -27 7 -61 10 -75 3 -14 8 -41 11 -60 3 -19 7 -42 9 -50 2
-8 7 -31 10 -50 19 -116 128 -459 175 -550 10 -19 33 -66 51 -105 104 -221
303 -516 483 -715 106 -116 274 -277 371 -355 28 -21 52 -42 55 -45 8 -9 112
-85 165 -121 28 -19 52 -37 53 -41 2 -5 8 -8 12 -8 5 0 28 -13 52 -29 115 -76
368 -202 503 -250 50 -18 106 -39 125 -46 134 -54 466 -119 725 -142 153 -13
568 -7 650 10 11 3 52 8 90 11 39 4 86 11 105 16 19 5 55 12 80 15 69 9 339
81 395 105 11 5 46 18 79 30 116 41 414 185 436 211 3 3 12 8 21 11 42 16 365
248 395 284 6 8 14 14 17 14 24 0 350 329 432 435 17 22 42 53 56 70 39 45
179 250 226 330 184 315 300 631 358 970 3 17 7 41 10 55 3 14 8 48 10 75 3
28 7 59 10 70 25 118 25 713 0 787 -2 7 -6 38 -9 68 -8 78 -41 252 -66 345
-12 44 -23 91 -26 103 -3 13 -12 43 -20 65 -8 23 -27 76 -41 117 -38 112 -126
300 -201 430 -284 496 -709 921 -1205 1209 -60 35 -143 78 -185 97 -43 19 -88
40 -102 48 -29 16 -297 113 -332 120 -13 3 -32 7 -43 11 -66 18 -237 56 -274
61 -25 3 -48 7 -51 9 -3 2 -30 6 -60 9 -89 10 -153 17 -185 23 -30 5 -472 13
-477 8z m-878 -1120 c45 -8 134 -47 187 -81 15 -11 37 -24 48 -31 11 -6 88
-53 170 -103 83 -51 179 -109 215 -131 36 -21 72 -43 80 -48 8 -6 62 -38 120
-72 58 -35 107 -67 108 -71 2 -4 8 -8 12 -8 5 0 49 -25 97 -55 48 -30 104 -64
123 -75 38 -22 33 -18 280 -170 95 -58 184 -112 198 -120 15 -9 52 -31 83 -50
71 -45 81 -51 159 -98 36 -21 169 -102 295 -179 127 -77 344 -209 483 -294
140 -85 272 -172 294 -194 157 -158 131 -448 -52 -569 -23 -15 -96 -59 -163
-97 -67 -38 -129 -73 -137 -78 -33 -21 -306 -176 -315 -180 -5 -2 -21 -12 -35
-21 -14 -9 -45 -28 -70 -42 -25 -14 -184 -105 -355 -203 -332 -191 -359 -206
-420 -240 -22 -13 -80 -46 -130 -75 -49 -29 -106 -62 -125 -73 -127 -72 -330
-188 -357 -203 -524 -302 -686 -392 -737 -407 -73 -22 -186 -23 -242 -3 -100
35 -185 116 -225 213 l-23 58 -2 1684 c0 971 3 1702 8 1725 33 147 148 259
298 290 60 13 64 13 130 1z"/>
</g>
</svg>
